<!DOCTYPE svg PUBLIC "-//W3C//DTD SVG 1.1//EN" "http://www.w3.org/Graphics/SVG/1.1/DTD/svg11.dtd">
<!-- Uploaded to: SVG Repo, www.svgrepo.com, Transformed by: SVG Repo Mixer Tools -->
<svg width="90px" height="90px" viewBox="0 0 48 48" xmlns="http://www.w3.org/2000/svg" fill="#009966">
<g id="SVGRepo_bgCarrier" stroke-width="0"/>
<g id="SVGRepo_tracerCarrier" stroke-linecap="round" stroke-linejoin="round"/>
<g id="SVGRepo_iconCarrier">
<title>24 Technology Devices icons</title>
<path d="M5,31V5A2,2,0,0,1,7,3H41a2,2,0,0,1,2,2V31H5Z" fill="none" stroke="#009966" stroke-linecap="round" stroke-miterlimit="10" stroke-width="2"/>
<rect x="10" y="8" width="28" height="18" rx="1" ry="1" fill="none" stroke="#009966" stroke-linecap="round" stroke-miterlimit="10" stroke-width="2"/>
<path d="M42.5,31l4.37,7.77a1,1,0,0,1,.13.49V43a2,2,0,0,1-2,2H3a2,2,0,0,1-2-2V39.26a1,1,0,0,1,.13-0.49L5.5,31" fill="none" stroke="#009966" stroke-linecap="round" stroke-linejoin="round" stroke-width="2"/>
<line x1="1" y1="39" x2="47" y2="39" fill="none" stroke="#009966" stroke-linecap="round" stroke-miterlimit="10" stroke-width="2"/>
<rect width="48" height="48" fill="none"/>
</g>
</svg>